<svg width="27" height="23" viewBox="0 0 27 23" fill="none" xmlns="http://www.w3.org/2000/svg">
<path d="M15.7499 21.0835C15.7499 22.1428 16.5059 23.0002 17.4374 23.0002C18.3689 23.0002 19.1249 22.1428 19.1249 21.0835C19.1249 20.0255 18.3689 19.1669 17.4374 19.1669C16.5059 19.1669 15.7499 20.0255 15.7499 21.0835ZM11.8124 19.1669C12.7439 19.1669 13.4999 20.0243 13.4999 21.0835C13.4999 22.1428 12.7439 23.0002 11.8124 23.0002C10.8809 23.0002 10.1249 22.1428 10.1249 21.0835C10.1249 20.0255 10.8809 19.1669 11.8124 19.1669ZM10.3094 12.778L8.08531 3.83355H26.9999L23.6947 12.778H10.3094ZM4.71931 0.000213623L8.58031 15.3335H22.7519L21.8081 17.8891H6.91419L3.00594 2.55577H0.835814L-6.10352e-05 0.000213623H4.71931Z" fill="#F4F4F4"/>
</svg>
