<svg width="23" height="24" viewBox="0 0 23 24" fill="none" xmlns="http://www.w3.org/2000/svg">
<path d="M11.0032 24.0002C6.35992 23.8504 2.74844 21.9322 0.184213 18.1632C-0.039098 17.8335 -0.0544987 17.5413 0.13031 17.1891C1.39317 14.8063 3.37217 13.3827 6.0904 12.9256C6.50622 12.8582 6.83734 13.008 7.16846 13.2253C9.00115 14.4167 10.9878 14.6865 13.0823 14.057C13.606 13.8997 14.145 13.6974 14.5685 13.3752C15.2154 12.8956 15.8622 12.8582 16.5937 13.053C19.027 13.6974 20.8058 15.0986 21.9224 17.3015C22.0533 17.5563 22.0148 17.7661 21.8608 18.0059C19.3197 21.8572 15.6851 23.8279 11.0032 24.0002Z" fill="#F4F4F4"/>
<path d="M4.60474 6.21918C4.60474 2.79489 7.48468 -0.00747798 10.9961 1.49911e-05C14.5151 1.49911e-05 17.3874 2.80239 17.3874 6.22668C17.3874 9.65846 14.5151 12.4458 10.9961 12.4458C7.46928 12.4458 4.60474 9.65097 4.60474 6.21918Z" fill="#F4F4F4"/>
</svg>
