<svg width="28" height="24" viewBox="0 0 28 24" fill="none" xmlns="http://www.w3.org/2000/svg">
<path d="M28 3.3165C26.9698 3.77383 25.8627 4.08183 24.7007 4.22067C25.8872 3.51017 26.7983 2.38433 27.2265 1.04267C26.117 1.70067 24.8873 2.179 23.5783 2.43683C22.5318 1.32033 21.0373 0.622665 19.3853 0.622665C15.6765 0.622665 12.9512 4.083 13.7888 7.67517C9.016 7.436 4.78333 5.14933 1.9495 1.67383C0.4445 4.25567 1.169 7.63316 3.72633 9.3435C2.786 9.31316 1.89933 9.05533 1.12583 8.62483C1.06283 11.286 2.97033 13.7757 5.733 14.3298C4.9245 14.5492 4.039 14.6005 3.13833 14.4278C3.86867 16.7098 5.98967 18.37 8.505 18.4167C6.09 20.3102 3.04733 21.156 0 20.7967C2.54217 22.4265 5.56267 23.3773 8.806 23.3773C19.4717 23.3773 25.4975 14.3695 25.1335 6.29033C26.2558 5.4795 27.23 4.468 28 3.3165Z" fill="#F4F4F4"/>
</svg>
